<svg width="491" height="343" viewBox="0 0 491 343" fill="none" xmlns="http://www.w3.org/2000/svg">
<rect opacity="0.07" width="63.715" height="37.1214" rx="18.5607" transform="matrix(-0.720068 -0.693903 0.7198 -0.694182 38.0516 159.296)" fill="#5D3BEE"/>
<rect opacity="0.07" width="168.404" height="37.1214" rx="18.5607" transform="matrix(-0.720068 -0.693903 0.7198 -0.694182 173.102 286.819)" fill="#5D3BEE"/>
<rect opacity="0.07" width="423.652" height="37.1214" rx="18.5607" transform="matrix(-0.720068 -0.693903 0.7198 -0.694182 307.841 330.196)" fill="#5D3BEE"/>
<rect opacity="0.07" width="157.968" height="37.1214" rx="18.5607" transform="matrix(-0.720068 -0.693903 0.7198 -0.694182 208.614 153.025)" fill="#5D3BEE"/>
<rect opacity="0.07" width="157.968" height="37.1214" rx="18.5607" transform="matrix(-0.720068 -0.693903 0.7198 -0.694182 411.259 350.265)" fill="#5D3BEE"/>
<rect opacity="0.07" width="63.715" height="37.1214" rx="18.5607" transform="matrix(-0.720068 -0.693903 0.7198 -0.694182 202.052 141.296)" fill="#5D3BEE"/>
<rect opacity="0.07" width="168.404" height="37.1214" rx="18.5607" transform="matrix(-0.720068 -0.693903 0.7198 -0.694182 337.106 268.819)" fill="#5D3BEE"/>
<rect opacity="0.07" width="423.652" height="37.1214" rx="18.5607" transform="matrix(-0.720068 -0.693903 0.7198 -0.694182 471.845 312.196)" fill="#5D3BEE"/>
<rect opacity="0.07" width="157.968" height="37.1214" rx="18.5607" transform="matrix(-0.720068 -0.693903 0.7198 -0.694182 372.618 135.025)" fill="#5D3BEE"/>
</svg>
